<?xml version="1.0" encoding="UTF-8"?>
<svg width="31px" height="31px" viewBox="0 0 31 31" version="1.1" xmlns="http://www.w3.org/2000/svg" xmlns:xlink="http://www.w3.org/1999/xlink">
    <!-- Generator: Sketch 63.1 (92452) - https://sketch.com -->
    <title>Group 3</title>
    <desc>Created with Sketch.</desc>
    <defs>
        <polygon id="path-1" points="0 0 31 0 31 31 0 31"></polygon>
    </defs>
    <g id="Symbols" stroke="none" stroke-width="1" fill="none" fill-rule="evenodd">
        <g id="Footer" transform="translate(-1152.000000, -11.000000)">
            <g id="Group" transform="translate(439.000000, 11.000000)">
                <g id="Group-3" transform="translate(713.000000, 0.000000)">
                    <mask id="mask-2" fill="white">
                        <use xlink:href="#path-1"></use>
                    </mask>
                    <g id="Clip-2"></g>
                    <path d="M19.7720082,9.48269101 L17.5201654,9.48269101 C17.1507527,9.48269101 16.6313092,9.66726086 16.6313092,10.4533406 L16.6313092,12.5490927 L19.7628903,12.5490927 L19.3967931,16.1067596 L16.6310329,16.1067596 L16.6310329,26.2393133 L12.440395,26.2393133 L12.440395,16.1067596 L10.4474451,16.1067596 L10.4474451,12.545777 L12.440395,12.545777 L12.440395,10.2414168 C12.440395,8.59355057 13.2231521,6.01316446 16.6683334,6.01316446 L19.7720082,6.02615066 L19.7720082,9.48269101 Z M15.5001381,0 C6.93954384,0 0,6.93960569 0,15.5 C0,24.0603943 6.93954384,31 15.5001381,31 C24.0604562,31 31,24.0603943 31,15.5 C31,6.93960569 24.0604562,0 15.5001381,0 L15.5001381,0 Z" id="Fill-1" fill="#FFFFFF" mask="url(#mask-2)"></path>
                </g>
            </g>
        </g>
    </g>
</svg>