<svg id="logo" xmlns="http://www.w3.org/2000/svg" viewBox="0 0 68.9 83.27"><defs><style>.cls-1{fill:#fff;}.cls-2,.cls-3{fill:#002976;}.cls-3,.cls-4{fill-rule:evenodd;}.cls-4{fill:#a30000;}</style></defs><path class="cls-1" d="M34.61,0,0,10.41v34.3C7.38,73.08,34.56,83.26,34.61,83.27S61.53,73.08,68.9,44.71V10.41Z"/><path class="cls-1" d="M34.63,6.61l-29,8.74V44.13c6.19,23.81,29,32.35,29,32.36s22.59-8.55,28.78-32.36V15.35Z"/><path class="cls-2" d="M34.61,77.68l-.34-.11c-.23-.08-23.41-8.76-29.74-33.1l0-.15V14.65L34.58,5.59l29.83,9.06V44.32l0,.13C58.1,68.52,35.18,77.44,35,77.52Zm-28-33.61c5.62,21.36,25.07,30.16,28,31.37,2.9-1.23,22.14-10.12,27.73-31.37V16.2L34.58,7.78l-28,8.42Z"/><path class="cls-3" d="M34.67,71.34s2.26-15.21,7-15.13,2.84,7.92,2.84,7.92,7.32-12.92.18-16.75c-5.28-2.89-9.78,0-11.87,5.14Q30.75,57.65,34.67,71.34Z"/><path class="cls-3" d="M33.88,71.34s-10-12.9-10.15-22.13c.35-11.48,8.65-9.94,9.82-9.42s2.14,1.05,1.46,2.1Q26.94,54.13,33.88,71.34Z"/><path class="cls-4" d="M38.92,37.79c5.88-5.12-2.43-3.06-5.76-6.73-.58-.64-2,.9-1.57,2.43C32.36,36,36.56,39.84,38.92,37.79Z"/><path class="cls-4" d="M25.38,39.56c-1.09-.83-.35-2.38,1.73-3.28,2.62-1.33,6,1.51,4.51,1.89C28.24,37.79,26.46,40.38,25.38,39.56Z"/><path class="cls-2" d="M32.1,22.15l-1.72-2.5-1.47,2.53H26.65L29.27,18l-2.7-4h2.34l1.67,2.46L32,14h2.24l-2.56,4.1,2.73,4Z"/><path class="cls-2" d="M37.79,14l2,6.13,2-6.13h2.09L41,22.15H38.5L35.68,14Z"/><path class="cls-2" d="M12.39,26.61v1.3h-.88v-3.7H13a1.38,1.38,0,0,1,1,.33,1.15,1.15,0,0,1,.34.86,1.21,1.21,0,0,1-.15.62,1.1,1.1,0,0,1-.46.42,1.7,1.7,0,0,1-.74.16Zm1-1.21c0-.32-.18-.48-.52-.48h-.49v1h.46C13.22,25.9,13.4,25.73,13.4,25.4Z"/><path class="cls-2" d="M17,27.24H15.62l-.23.67h-.94l1.35-3.66h1.05l1.36,3.66h-1Zm-.23-.68-.46-1.37-.47,1.37Z"/><path class="cls-2" d="M20.92,27.91l-.8-1.4h-.2v1.4H19v-3.7h1.53a1.59,1.59,0,0,1,.74.15,1,1,0,0,1,.45.41,1.16,1.16,0,0,1,.16.63,1.07,1.07,0,0,1-.22.69,1.22,1.22,0,0,1-.65.39l.88,1.45Zm-1-2h.55a.55.55,0,0,0,.39-.12.45.45,0,0,0,.13-.35.43.43,0,0,0-.13-.34.52.52,0,0,0-.39-.13h-.55Z"/><path class="cls-2" d="M23.73,27.23H25v.68H22.86v-3.7h.89Z"/><path class="cls-2" d="M26.72,24.92v.78H28v.67H26.72v.82h1.41v.72h-2.3v-3.7h2.3v.71Z"/><path class="cls-2" d="M33.28,24.24V27.9h-.89V25.61l-.8,2.3h-.77L30,25.61v2.3h-.87V24.25h1.1l1,2.55,1-2.56Z"/><path class="cls-2" d="M35.28,24.92v.78h1.25v.67H35.28v.82h1.41v.72H34.37v-3.7h2.31v.71Z"/><path class="cls-2" d="M41,27.91h-.89l-1.51-2.27v2.27h-.88v-3.7h.88l1.51,2.29V24.21H41Z"/><path class="cls-2" d="M44.73,24.21v.71h-1v3h-.91v-3h-1v-.71Z"/><path class="cls-2" d="M47.36,27.24H46l-.23.67H44.8l1.35-3.66H47.2l1.36,3.66h-1Zm-.23-.68-.46-1.37-.47,1.37Z"/><path class="cls-2" d="M50.27,24.21v3.7h-.9v-3.7Z"/><path class="cls-2" d="M53.27,27.91l-.8-1.4h-.2v1.4h-.9v-3.7H52.9a1.56,1.56,0,0,1,.74.15,1,1,0,0,1,.46.42,1.22,1.22,0,0,1,.16.62,1.2,1.2,0,0,1-.22.69,1.22,1.22,0,0,1-.65.39l.87,1.43Zm-1-2h.55a.55.55,0,0,0,.39-.12.45.45,0,0,0,.13-.35.5.5,0,0,0-.13-.37.56.56,0,0,0-.39-.13h-.55Z"/><path class="cls-2" d="M56.08,24.92v.78h1.25v.67H56.08v.82h1.41v.72h-2.3v-3.7h2.3v.71Z"/></svg>